# xmcd CD database file
#
# Track frame offsets:
#	150
#	14225
#	28335
#	42343
#	56955
#	71260
#	74855
#	89033
#	102550
#	115293
#	129123
#	143385
#	158623
#	173170
#	187018
#	200135
#	214310
#	228070
#
# Disc length: 3238 seconds
#
# Revision: 0
# Processed by: cddbd v1.5.1PL0 Copyright (c) Steve Scherf et al.
# Submitted via: CDex 1.51
#
DISCID=150ca412
DTITLE=Mildred Baily - All Of Me
DYEAR=1900
DGENRE=Jazz
TTITLE0=All Of Me
TTITLE1=All Of Me/Alt.Take
TTITLE2=Almost Like Being In Love
TTITLE3=Heather On The Hill
TTITLE4=All That Glitters Is Not Gold
TTITLE5=All That Glitters Is Not Gold/Alt.Take
TTITLE6=In Love,In Vain
TTITLE7=It's A Woman's Prerogative
TTITLE8=Penthouse Serenade
TTITLE9=I'll Close My Eyes
TTITLE10=Me And The Blues
TTITLE11=At Sundown
TTITLE12=Lover Come Back To Me
TTITLE13=You Started Something
TTITLE14=Born To Be Blue
TTITLE15=Can't We Be Friend
TTITLE16=Don't Worry About Strangers
TTITLE17=Gone On That Guy
EXTD=
EXTT0=
EXTT1=
EXTT2=
EXTT3=
EXTT4=
EXTT5=
EXTT6=
EXTT7=
EXTT8=
EXTT9=
EXTT10=
EXTT11=
EXTT12=
EXTT13=
EXTT14=
EXTT15=
EXTT16=
EXTT17=
PLAYORDER=
